<svg width="20" height="22" viewBox="0 0 20 22" fill="none" xmlns="http://www.w3.org/2000/svg">
<path d="M4.5 11.6309V20.5C4.5 20.7739 4.27386 21 4 21H1C0.726143 21 0.5 20.7739 0.5 20.5V1.5C0.5 1.22614 0.726142 1 1 1H4C4.27386 1 4.5 1.22614 4.5 1.5V10.3191V10.3228V11.6272V11.6309ZM5.37252 11.2937L5.0872 10.975L5.37252 10.6563C5.40126 10.6242 5.43591 10.5936 5.47725 10.5661L5.47727 10.5661L5.48201 10.5629L18.732 1.51288L18.7437 1.50492L18.7549 1.49631C19.0401 1.2769 19.5 1.4688 19.5 1.9V20.1C19.5 20.5312 19.0401 20.7231 18.7549 20.5037L18.7442 20.4955L18.7331 20.4878L5.48307 11.3878L5.48309 11.3878L5.47725 11.3839C5.43591 11.3564 5.40126 11.3258 5.37252 11.2937Z" fill="#FCFCFC" stroke="#FCFCFC"/>
</svg>
