<svg width="20" height="22" viewBox="0 0 20 22" fill="none" xmlns="http://www.w3.org/2000/svg">
<path d="M14.6274 10.6562L14.9126 10.975L14.6274 11.2938C14.5988 11.3258 14.5642 11.3563 14.5228 11.3839L14.5227 11.3839L14.5169 11.3878L1.26693 20.4878L1.25583 20.4955L1.24514 20.5037C0.959906 20.7231 0.5 20.5312 0.5 20.1V1.9C0.5 1.4688 0.959906 1.2769 1.24514 1.49631L1.25633 1.50492L1.26799 1.51288L14.518 10.5629L14.518 10.5629L14.5228 10.5661C14.5642 10.5937 14.5988 10.6242 14.6274 10.6562ZM15.5 10.3228V10.3184V1.5C15.5 1.22614 15.7261 1 16 1H19C19.2739 1 19.5 1.22614 19.5 1.5V20.5C19.5 20.7739 19.2739 21 19 21H16C15.7261 21 15.5 20.7739 15.5 20.5V11.6316V11.6272V10.3228Z" fill="#FCFCFC" stroke="#FCFCFC"/>
</svg>
