<svg width="20" height="20" viewBox="0 0 20 20" fill="none" xmlns="http://www.w3.org/2000/svg">
<path d="M21.35 3.5H21.3C21.316 3.5 21.3327 3.5 21.35 3.5ZM21.35 3.5H21.4H21.35ZM18.4036 5.35355L19.2571 4.5H18.05H15.2C14.0338 4.5 12.8678 5.13392 12.2725 6.14056L7.12882 14.3805C6.26452 15.6967 4.86815 16.5 3.3 16.5H1.5C1.22614 16.5 1 16.2739 1 16C1 15.7261 1.22614 15.5 1.5 15.5H3.3C4.51272 15.5 5.62891 14.919 6.27536 13.8628L11.4212 5.61954C12.2855 4.30335 13.6818 3.5 15.25 3.5H18.1H19.3071L18.4536 2.64645L17.1536 1.34645C16.9488 1.14171 16.9488 0.858291 17.1536 0.653553C17.3583 0.448816 17.6417 0.448816 17.8464 0.653553L20.8464 3.65355L20.95 3.75711V3.80736L21 3.85727V3.9071L21.0804 3.98753C21.065 4.01304 21.0497 4.04305 21.0366 4.07754C21.0175 4.10774 20.998 4.14489 20.9824 4.18894L20.9818 4.19055C20.9783 4.20081 20.9751 4.21084 20.9723 4.22059L20.8464 4.34645L17.8464 7.34645C17.7372 7.45567 17.6132 7.5 17.5 7.5C17.3967 7.5 17.261 7.46225 17.0858 7.32793C16.899 7.12488 16.9049 6.85219 17.1036 6.65355L18.4036 5.35355ZM21.0715 3.90356C21.0759 3.908 21.0741 3.90666 21.0686 3.90079L21.0689 3.90105C21.0699 3.90206 21.0708 3.9029 21.0715 3.90356ZM6.27875 6.14276L6.27876 6.14275L6.27664 6.13929C5.63039 5.08178 4.51352 4.50001 3.3 4.50001H1.5C1.24198 4.50001 1 4.28998 1 3.95001C1 3.67615 1.22614 3.45001 1.5 3.45001H3.3C4.72345 3.45001 6.03189 4.11156 6.89946 5.26452L6.31092 6.19638L6.27875 6.14276ZM20.9 15.85V16.2763C20.8821 16.3066 20.8669 16.326 20.8464 16.3464L17.8464 19.3464C17.7372 19.4557 17.6132 19.5 17.5 19.5C17.3967 19.5 17.261 19.4623 17.0858 19.3279C16.899 19.1249 16.9049 18.8522 17.1036 18.6536L18.4036 17.3536L19.2571 16.5H18.05H15.2C13.7787 16.5 12.4721 15.8405 11.6045 14.6908L12.2305 13.7393L12.2713 13.8072L12.2712 13.8073L12.2734 13.8107C12.9196 14.8682 14.0365 15.45 15.25 15.45H18.1H19.3071L18.4536 14.5964L17.1536 13.2964C16.9488 13.0917 16.9488 12.8083 17.1536 12.6036C17.3583 12.3988 17.6417 12.3988 17.8464 12.6036L20.8464 15.6036C20.8669 15.624 20.8821 15.6434 20.9 15.6737V15.8071L20.9429 15.85H20.9Z" fill="#FCFCFC" stroke="#FCFCFC"/>
</svg>
